<?xml version="1.0" standalone="no"?>
<!DOCTYPE svg PUBLIC "-//W3C//DTD SVG 20010904//EN"
 "http://www.w3.org/TR/2001/REC-SVG-20010904/DTD/svg10.dtd">
<svg version="1.0" xmlns="http://www.w3.org/2000/svg"
 width="1022.000000pt" height="1022.000000pt" viewBox="0 0 1022.000000 1022.000000"
 preserveAspectRatio="xMidYMid meet">
<metadata>
Created by potrace 1.14, written by Peter Selinger 2001-2017
</metadata>
<g transform="translate(0.000000,1022.000000) scale(0.100000,-0.100000)"
fill="#000000" stroke="none">
<path d="M5320 10190 c0 -11 -7 -20 -15 -20 -9 0 -12 6 -8 17 5 13 3 15 -13 9
-21 -8 -176 -41 -239 -50 -22 -4 -45 -13 -51 -21 -6 -8 -28 -18 -49 -23 -46
-9 -53 -24 -27 -50 14 -14 17 -23 10 -30 -6 -6 -12 -36 -13 -67 -2 -50 0 -58
17 -63 17 -4 17 -6 4 -21 -20 -22 -32 -75 -35 -149 -1 -35 -4 -72 -6 -83 -2
-11 2 -19 10 -19 22 0 26 -17 8 -31 -15 -12 -16 -12 -9 6 5 14 4 17 -4 9 -18
-18 -21 -61 -6 -73 13 -11 12 -17 -1 -49 -19 -46 -22 -155 -4 -176 11 -13 11
-17 -3 -22 -9 -3 -16 -12 -16 -20 0 -17 17 -18 23 -1 2 6 8 8 13 4 5 -5 -1
-16 -13 -27 -25 -20 -20 -32 11 -24 30 7 56 -37 36 -61 -13 -15 -7 -30 11 -30
15 0 11 -19 -5 -21 -16 -2 -60 -44 -46 -44 5 0 7 -6 4 -14 -3 -8 0 -17 6 -21
8 -5 8 -11 -1 -21 -15 -19 -30 -18 -23 1 9 22 -9 18 -24 -5 -7 -12 -8 -20 -2
-21 5 -1 14 -2 19 -3 21 -3 19 -13 -4 -26 -31 -17 -33 -34 -2 -25 19 6 18 3
-8 -18 -29 -24 -29 -25 -12 -51 10 -14 15 -27 12 -27 -3 -1 -11 -2 -17 -3 -13
-1 -19 -40 -11 -63 3 -7 12 -13 20 -13 12 0 12 -3 -2 -17 -13 -12 -15 -27 -11
-62 3 -25 6 -50 6 -56 1 -5 -2 -21 -6 -34 -6 -20 -4 -23 10 -18 13 5 15 2 10
-17 -4 -17 3 -33 27 -61 30 -34 36 -36 71 -31 68 11 239 146 217 172 -6 8 -5
13 6 18 23 9 53 86 91 234 18 73 35 136 39 141 12 20 27 120 29 201 2 47 13
122 25 167 11 45 21 105 21 133 0 28 4 59 9 68 5 9 11 44 15 77 3 33 12 86 20
118 8 32 13 77 10 99 -2 23 1 47 7 55 6 7 13 43 15 80 4 76 10 118 17 130 3 5
-1 16 -8 26 -11 15 -17 16 -34 8 -11 -6 -28 -11 -38 -10 -15 0 -14 2 5 11 35
17 26 25 -33 27 -49 1 -55 -1 -55 -19z m-340 -940 c-6 -11 -8 -25 -5 -30 3 -6
1 -10 -6 -10 -7 0 -10 11 -7 30 3 22 1 30 -11 30 -11 0 -10 3 5 14 16 12 20
12 27 0 4 -7 3 -23 -3 -34z"/>
<path d="M6800 9609 c-23 -17 -39 -26 -36 -20 4 6 2 11 -4 11 -6 0 -13 -7 -17
-16 -5 -13 -7 -13 -14 -2 -7 9 -11 10 -16 2 -5 -7 -19 -14 -33 -15 -44 -7 -53
-83 -12 -97 8 -2 10 3 5 15 -6 16 -5 16 10 4 19 -15 14 -31 -10 -31 -13 0 -12
-4 6 -21 16 -16 22 -30 19 -50 -5 -33 -5 -33 25 -18 21 10 21 9 -2 -10 -18
-16 -19 -21 -7 -21 19 0 21 -19 3 -26 -7 -2 -14 -16 -15 -29 -1 -19 3 -25 17
-25 15 0 39 -29 29 -34 -2 -1 -15 -7 -30 -14 -19 -7 -26 -16 -22 -27 3 -8 10
-13 14 -10 4 3 10 -5 14 -18 4 -15 0 -26 -14 -36 -14 -9 -20 -24 -19 -50 0
-29 2 -32 9 -16 10 22 11 21 15 -15 1 -14 4 -30 6 -37 2 -6 -5 -18 -16 -26
-15 -12 -17 -18 -7 -29 8 -10 8 -18 1 -25 -8 -8 -7 -17 2 -31 10 -16 10 -26
-4 -53 -13 -27 -14 -36 -4 -44 24 -19 28 -47 10 -62 -13 -10 -14 -16 -6 -19 7
-3 10 -11 7 -19 -3 -7 -1 -16 5 -20 8 -4 6 -12 -5 -22 -9 -9 -13 -25 -10 -37
3 -11 -1 -27 -9 -36 -11 -12 -12 -24 -3 -58 8 -34 8 -46 -5 -66 -14 -21 -14
-26 -1 -45 14 -19 14 -21 -5 -21 -14 0 -21 -6 -21 -20 0 -11 4 -20 9 -20 14 0
41 -29 41 -43 0 -8 -3 -7 -9 2 -5 8 -16 11 -30 6 -29 -9 -26 -20 11 -38 27
-13 30 -17 15 -22 -9 -4 -17 -11 -17 -17 0 -5 5 -6 10 -3 6 3 10 2 10 -2 0 -5
6 -17 13 -26 11 -16 15 -16 59 -1 26 9 59 29 73 46 14 16 25 27 25 23 0 -10
33 12 90 61 125 106 123 104 110 119 -10 12 -8 19 11 35 13 10 27 19 30 20 3
0 24 26 46 58 61 89 103 201 108 291 2 24 7 46 13 50 6 4 11 25 10 49 0 23 5
48 11 56 9 10 9 16 1 21 -7 4 -9 24 -5 55 4 30 2 51 -4 55 -7 4 -8 13 -2 23 4
9 7 33 5 52 -13 153 -17 180 -30 180 -8 0 -11 6 -8 15 4 8 11 12 18 9 6 -3 0
3 -14 14 -19 16 -28 18 -40 9 -12 -9 -13 -9 -2 3 17 20 15 27 -10 33 l-21 6
23 19 c19 15 21 22 11 40 -7 14 -17 19 -28 15 -12 -5 -15 -2 -10 10 5 13 -4
23 -36 39 -36 19 -61 23 -168 25 l-126 3 -43 -31z m-103 -71 c-3 -8 -6 -5 -6
6 -1 11 2 17 5 13 3 -3 4 -12 1 -19z m23 -102 c0 -3 -4 -8 -10 -11 -5 -3 -10
-1 -10 4 0 6 5 11 10 11 6 0 10 -2 10 -4z"/>
<path d="M4890 9197 c-14 -7 -26 -21 -28 -31 -4 -17 -2 -17 27 3 17 12 31 27
31 32 0 11 0 11 -30 -4z"/>
<path d="M4896 9157 c-26 -21 -27 -24 -13 -50 l15 -28 16 47 c9 26 15 49 13
50 -1 2 -15 -7 -31 -19z"/>
<path d="M2863 8983 c-7 -2 -13 -11 -13 -20 0 -24 97 -275 152 -393 52 -111
70 -130 106 -111 10 5 24 6 31 2 10 -6 9 -10 -3 -14 -9 -4 -16 -11 -16 -17 0
-6 4 -9 9 -6 14 9 20 -17 8 -38 -7 -15 -6 -22 6 -31 11 -8 12 -16 6 -28 -11
-19 -4 -37 14 -37 7 0 12 14 12 32 0 18 6 33 14 36 10 3 12 -7 9 -52 -4 -46
-2 -56 10 -51 10 3 12 0 8 -10 -7 -19 8 -19 24 0 18 21 21 14 11 -21 -6 -22
-4 -36 6 -49 13 -19 14 -19 19 3 4 12 10 22 15 22 11 0 11 2 0 -38 -10 -33 -9
-34 51 -73 34 -21 72 -39 85 -39 16 0 23 -6 23 -19 0 -20 18 -31 53 -31 12 0
34 -6 49 -14 24 -13 28 -12 52 13 14 15 26 32 26 38 0 7 10 19 21 27 34 23 19
74 -36 125 -25 23 -50 41 -56 41 -6 0 -9 7 -5 15 6 17 -19 45 -42 45 -15 0
-15 2 -2 11 11 8 12 12 3 16 -7 2 -13 15 -13 28 0 28 -26 40 -35 17 -5 -15 -9
-14 -25 8 -16 22 -17 25 -2 36 21 15 8 44 -20 45 -17 1 -18 2 -5 6 21 5 21 7
3 42 -21 40 -44 57 -58 43 -7 -7 -19 -12 -27 -12 -14 1 -13 3 2 14 9 7 17 21
17 32 0 14 -3 15 -12 6 -7 -7 -18 -12 -26 -12 -11 0 -10 3 2 15 8 8 18 24 21
35 18 57 -143 261 -250 316 -30 16 -55 35 -55 42 0 8 -22 12 -77 11 -43 0 -84
-3 -90 -6z"/>
<path d="M8455 8520 c3 -5 -8 -16 -24 -24 -25 -14 -30 -14 -41 -1 -16 20 -55
19 -90 -2 -35 -20 -59 -61 -43 -71 19 -12 1 -66 -22 -70 -29 -6 -44 -21 -54
-56 -4 -17 -14 -30 -20 -28 -7 1 -22 -10 -34 -25 -12 -15 -43 -51 -70 -80 -27
-29 -46 -57 -42 -62 3 -6 2 -11 -4 -11 -20 0 -78 -60 -96 -100 -10 -22 -23
-40 -29 -40 -16 0 -54 -43 -66 -74 -5 -14 -21 -31 -34 -36 -13 -5 -28 -19 -32
-32 -4 -12 -24 -43 -45 -69 -39 -45 -48 -69 -28 -69 6 0 -3 -17 -20 -37 -74
-90 -94 -125 -94 -169 0 -24 8 -55 17 -69 13 -20 24 -25 61 -25 24 0 47 5 50
11 4 6 14 8 22 5 8 -3 28 3 43 14 16 11 30 16 32 11 8 -24 195 79 343 189 140
104 329 284 505 480 47 52 90 100 96 107 6 6 12 45 13 85 1 40 3 87 4 103 2
44 -11 107 -28 129 -14 19 -15 19 -56 1 -40 -19 -42 -19 -55 0 -13 17 -14 17
-23 -6 -5 -13 -10 -18 -10 -11 -1 14 -47 16 -56 2 -3 -5 -16 -10 -27 -10 -12
0 -18 3 -15 6 8 9 -11 44 -24 44 -6 0 -8 -4 -4 -10z m-410 -410 c3 -5 1 -10
-4 -10 -6 0 -11 5 -11 10 0 6 2 10 4 10 3 0 8 -4 11 -10z"/>
<path d="M1211 8076 c-21 -22 -22 -46 -1 -46 5 0 131 -70 282 -156 298 -171
533 -292 673 -347 129 -50 139 -53 132 -33 -4 10 -3 15 3 11 6 -3 10 -18 10
-33 0 -24 7 -29 63 -49 34 -11 90 -33 123 -47 70 -29 139 -39 153 -22 5 6 20
44 35 84 14 41 31 82 36 93 9 15 1 33 -40 94 -53 79 -104 121 -155 128 -16 3
-29 9 -28 16 2 6 -8 13 -22 17 -14 3 -29 13 -34 21 -7 13 -10 13 -24 -2 -16
-15 -17 -15 -17 4 0 12 -6 21 -14 21 -8 0 -17 6 -20 13 -3 8 -8 7 -16 -5 -16
-25 -33 -23 -25 4 6 17 4 20 -9 15 -10 -4 -16 -1 -16 8 0 18 -16 20 -24 3 -3
-10 -9 -8 -19 4 -21 26 -98 57 -132 53 -17 -2 -37 3 -45 10 -18 15 -55 25
-137 35 -34 4 -70 15 -78 24 -9 9 -29 16 -44 16 -23 0 -182 26 -271 45 -14 3
-38 7 -55 10 -16 3 -52 10 -80 15 -27 5 -79 12 -115 15 -59 4 -67 3 -89 -19z
m1151 -278 c-7 -7 -12 -8 -12 -2 0 14 12 26 19 19 2 -3 -1 -11 -7 -17z"/>
<path d="M4944 8020 c-5 -5 -40 -10 -77 -11 -38 -1 -74 -7 -80 -13 -7 -6 -36
-12 -64 -13 -74 -2 -93 -4 -133 -13 -19 -5 -60 -11 -90 -14 -68 -8 -119 -24
-143 -44 -15 -14 -20 -14 -27 -2 -7 11 -24 10 -107 -9 -54 -13 -105 -24 -113
-26 -52 -11 -81 -19 -130 -37 -30 -11 -66 -22 -80 -24 -14 -3 -42 -14 -63 -24
-21 -11 -44 -20 -52 -20 -8 0 -59 -22 -112 -49 -54 -28 -163 -81 -243 -120
-84 -40 -168 -89 -200 -115 -30 -25 -86 -70 -125 -100 -100 -76 -321 -300
-407 -412 -12 -16 -25 -31 -28 -34 -3 -3 -25 -32 -50 -65 -68 -90 -95 -121
-202 -227 -53 -54 -91 -98 -83 -98 9 0 -1 -16 -25 -40 -22 -22 -40 -49 -40
-59 0 -11 -3 -27 -7 -37 -4 -12 -3 -15 5 -10 14 8 36 -40 28 -61 -9 -23 -46
-16 -47 10 0 21 -1 21 -8 2 -5 -11 -5 -21 0 -23 14 -6 -36 -85 -66 -104 l-30
-18 26 0 25 0 -17 -69 c-37 -145 -45 -498 -15 -606 29 -102 66 -193 125 -309
93 -182 140 -256 165 -257 17 -1 17 -2 4 -6 -28 -7 -22 -20 36 -78 36 -35 50
-55 40 -57 -15 -3 10 -44 92 -150 39 -50 206 -326 270 -448 69 -131 137 -202
250 -260 38 -19 93 -59 122 -87 39 -39 61 -53 81 -53 16 0 34 -7 41 -15 9 -11
29 -13 83 -10 40 3 122 7 182 10 116 5 136 7 193 26 27 9 37 9 40 0 5 -15 26
-14 94 4 31 8 67 16 80 19 117 24 502 150 704 231 146 59 171 71 323 141 52
24 100 44 108 44 31 0 124 54 233 136 166 125 241 153 329 123 42 -15 75 -5
90 27 14 31 9 41 -9 19 -24 -29 -80 -6 -67 28 6 17 78 21 89 5 7 -10 8 -10 7
2 -4 26 12 120 22 126 5 3 9 -3 9 -13 0 -10 12 -35 26 -56 l25 -38 33 28 c19
15 51 55 73 88 79 121 90 168 118 505 4 41 17 106 31 143 44 124 49 275 12
412 -5 22 -12 47 -13 55 -2 8 -24 89 -48 180 -25 91 -47 191 -50 222 -7 73
-39 123 -160 254 -56 61 -116 104 -146 107 -11 1 -23 9 -26 18 -8 25 -45 55
-53 43 -4 -6 -17 -13 -29 -16 -19 -5 -20 -3 -11 12 15 23 6 42 -26 60 -24 12
-29 12 -38 0 -8 -12 -9 -12 -4 2 7 22 -39 37 -57 19 -8 -8 -7 -11 4 -11 9 0
16 -7 16 -15 0 -10 -10 -15 -31 -14 -17 0 -25 3 -18 6 6 2 12 8 12 13 0 14
-32 21 -46 9 -11 -9 -14 -8 -14 4 0 10 -6 14 -14 11 -18 -7 -28 9 -20 30 5 13
9 14 23 4 9 -6 6 -1 -6 12 -17 18 -26 21 -34 13 -8 -8 -16 -6 -32 10 -17 17
-21 18 -31 5 -11 -15 -41 -13 -31 2 2 4 -5 16 -16 26 -20 18 -21 18 -35 0 -7
-10 -15 -24 -17 -30 -3 -7 -10 -5 -18 5 -8 9 -26 24 -41 33 -20 13 -27 14 -31
4 -4 -10 -10 -8 -21 6 -13 16 -24 18 -67 13 -60 -7 -66 -11 -49 -32 7 -8 9
-15 5 -15 -4 0 -14 8 -21 17 -12 17 -13 17 -31 -3 -10 -11 -23 -19 -30 -17 -7
3 -32 -5 -57 -16 -25 -10 -46 -15 -48 -10 -2 5 -37 -7 -78 -27 -137 -66 -214
-100 -350 -153 -264 -104 -366 -157 -459 -240 l-35 -31 49 0 49 0 -44 -22
c-62 -32 -103 -90 -140 -202 -17 -52 -42 -111 -55 -131 -24 -34 -21 -40 15
-36 8 1 -2 -9 -22 -23 -21 -15 -50 -48 -65 -74 -26 -43 -28 -55 -28 -152 0
-113 0 -110 40 -275 14 -60 27 -122 27 -136 1 -21 5 -25 19 -22 23 6 26 -19 4
-37 -17 -14 -20 -40 -5 -40 6 0 10 -8 10 -17 0 -15 2 -16 10 -3 8 12 10 11 10
-7 0 -12 -5 -25 -11 -29 -6 -3 -9 -17 -6 -30 2 -13 -2 -29 -10 -36 -22 -18
-36 -49 -20 -42 8 3 18 -5 23 -16 l9 -21 27 20 c18 15 29 18 34 10 3 -6 1 -14
-5 -18 -8 -5 -6 -12 6 -23 41 -36 128 -40 172 -9 34 24 75 31 77 14 1 -7 2
-29 3 -48 0 -19 5 -35 10 -35 9 0 44 131 36 138 -2 2 -15 -4 -30 -14 l-26 -17
5 28 c6 30 32 65 50 65 6 0 33 11 60 25 56 28 69 26 39 -8 -27 -29 -46 -67
-35 -67 20 0 70 63 110 139 23 43 57 93 74 110 27 26 29 31 12 31 -12 0 -1 11
31 29 28 16 68 47 89 68 62 61 96 118 183 311 13 30 39 78 58 108 19 29 46 76
60 104 49 97 132 166 321 267 149 80 139 78 164 37 84 -143 83 -311 -3 -528
-28 -71 -43 -91 -122 -171 -49 -50 -136 -124 -192 -164 -57 -40 -103 -75 -103
-77 0 -2 8 -1 18 3 38 14 -22 -37 -87 -74 -95 -54 -137 -72 -179 -76 -20 -2
-38 -10 -40 -17 -6 -17 26 -40 55 -40 34 0 28 -17 -9 -25 -18 -4 -51 -16 -72
-26 -22 -11 -52 -19 -68 -19 -15 0 -28 -6 -29 -12 -3 -43 -7 -60 -21 -75 -8
-10 -18 -25 -21 -33 -3 -8 -6 5 -7 30 l-1 45 -47 -55 c-79 -92 -165 -176 -205
-199 -20 -13 -64 -29 -97 -37 -69 -16 -172 -61 -245 -106 -66 -42 -167 -117
-182 -136 -18 -22 -27 -8 -12 20 l12 23 -24 -22 c-14 -12 -45 -24 -73 -28 -27
-4 -57 -16 -67 -26 -20 -20 -39 -25 -39 -10 0 6 -12 6 -30 1 -16 -5 -43 -6
-61 -3 -17 2 -49 5 -70 6 -21 1 -41 8 -44 14 -3 9 -11 10 -29 3 -29 -11 -33
-7 -41 41 -3 19 -21 93 -40 165 -19 71 -35 145 -35 163 0 25 -4 32 -15 27 -10
-4 -15 1 -16 17 -4 80 -22 188 -49 298 -11 43 -17 90 -14 106 3 16 0 49 -6 74
-7 24 -14 52 -16 61 -2 10 -6 28 -9 41 -13 58 -17 230 -6 312 27 207 134 458
339 793 110 181 265 355 368 413 30 17 70 49 89 71 27 32 44 42 82 49 26 5 58
12 71 14 12 3 33 7 47 10 163 34 432 154 652 292 71 44 111 63 135 63 18 0 49
4 68 10 19 5 46 11 60 13 55 10 109 30 107 41 -1 6 9 10 23 8 14 -1 42 -4 62
-6 24 -3 41 1 48 10 9 10 17 11 30 4 10 -5 33 -7 52 -5 18 3 108 7 200 10
l166 4 104 -48 c57 -27 137 -59 178 -71 43 -13 84 -32 95 -45 11 -12 37 -32
58 -44 34 -19 40 -19 60 -6 27 17 71 9 63 -12 -9 -22 4 -61 22 -68 11 -4 23 1
33 14 9 11 19 17 23 14 11 -11 6 -23 -9 -23 -8 0 -15 -3 -15 -7 1 -14 50 -44
60 -38 6 4 9 1 8 -6 -2 -7 8 -18 22 -25 22 -12 26 -11 32 6 11 29 21 24 14 -5
-6 -22 -2 -28 29 -41 20 -8 38 -21 42 -30 3 -9 13 -13 27 -9 21 6 21 6 2 -9
-11 -9 -15 -16 -9 -16 6 0 30 -16 53 -35 23 -19 54 -36 68 -36 17 -1 21 -3 10
-6 -10 -2 -18 -8 -18 -13 0 -16 19 -21 39 -11 15 8 20 7 25 -5 5 -13 2 -15
-14 -11 -28 7 -26 1 21 -51 23 -26 45 -57 50 -69 9 -25 21 -28 50 -13 11 7 19
7 19 1 0 -5 3 -17 7 -27 4 -12 3 -15 -5 -10 -18 11 -15 -19 7 -67 30 -65 68
-167 122 -327 27 -80 53 -152 58 -161 6 -11 0 -28 -21 -60 -24 -35 -29 -52
-25 -81 6 -43 35 -88 57 -87 30 2 31 -1 11 -27 -40 -51 -51 -139 -35 -279 16
-132 11 -255 -13 -307 -12 -25 -19 -49 -17 -51 8 -8 -25 -130 -118 -430 -39
-130 -136 -317 -290 -562 -69 -110 -151 -249 -183 -310 -32 -60 -78 -137 -102
-170 -24 -33 -62 -88 -86 -122 -23 -34 -52 -64 -63 -67 -12 -3 -34 -23 -50
-43 -42 -55 -76 -84 -91 -79 -10 4 -11 1 -3 -14 14 -26 13 -35 -4 -21 -10 9
-27 -3 -80 -56 -37 -38 -70 -72 -74 -78 -4 -5 -47 -30 -95 -55 -50 -25 -114
-69 -150 -101 -48 -44 -63 -53 -68 -41 -5 14 -6 14 -12 -1 -3 -9 -13 -17 -21
-17 -9 0 -13 -6 -10 -13 3 -9 -4 -14 -23 -14 -28 0 -137 -72 -139 -93 -1 -5
-2 -16 -3 -22 -1 -10 -3 -10 -9 0 -7 10 -16 10 -42 0 -24 -8 -35 -8 -38 0 -2
6 -26 -1 -62 -19 -120 -59 -284 -103 -475 -127 -76 -9 -387 -9 -485 0 -41 4
-85 7 -98 8 -19 0 -22 4 -17 21 5 15 4 19 -4 15 -7 -4 -26 7 -45 26 -57 57
-64 60 -138 65 -40 2 -84 10 -98 18 -21 11 -29 11 -52 -3 -16 -9 -28 -23 -28
-32 -1 -13 -3 -12 -14 2 -12 16 -18 12 -63 -45 -61 -76 -76 -102 -68 -125 3
-11 -3 -27 -15 -40 -15 -16 -18 -27 -11 -44 5 -13 11 -41 14 -63 8 -57 17 -75
37 -75 12 0 17 -8 16 -27 -3 -53 64 -148 116 -165 11 -4 11 -8 0 -20 -10 -12
-10 -18 -1 -23 6 -4 15 -1 20 6 6 10 9 8 9 -9 0 -13 4 -20 10 -17 6 3 10 -4
10 -15 0 -15 5 -20 15 -17 8 4 22 -5 34 -21 22 -31 104 -75 173 -92 29 -8 48
-18 51 -30 8 -30 206 -85 347 -96 100 -7 133 -12 162 -23 43 -16 126 -20 145
-6 13 10 19 9 34 -6 17 -17 34 -18 186 -14 342 9 487 26 708 86 108 30 241 72
280 89 11 5 55 23 98 39 151 59 427 203 473 246 24 23 44 46 44 51 0 5 23 20
51 34 171 83 613 575 859 955 223 345 334 607 482 1145 49 180 53 200 36 201
-7 1 -2 5 12 9 l25 8 -25 1 -24 1 22 16 c19 13 23 24 20 57 -1 25 2 42 10 45
6 2 12 17 12 33 0 18 -4 28 -10 24 -6 -4 -6 5 1 22 17 41 27 91 21 97 -3 3
-11 1 -19 -5 -8 -7 -13 -8 -13 -1 0 5 -10 13 -22 17 -20 6 -20 8 -5 12 9 2 17
9 17 14 0 5 9 9 20 9 26 0 41 31 41 83 -1 23 0 53 0 67 1 13 -4 26 -10 28 -7
2 -6 13 4 32 22 42 25 91 8 123 -11 22 -12 32 -3 42 15 18 23 115 10 115 -5 0
-15 -10 -21 -22 -22 -40 -21 -3 1 52 12 29 17 56 13 59 -4 4 -7 5 -6 2 3 -6
-28 -63 -32 -59 -2 2 -6 26 -8 52 -3 44 -1 49 22 57 19 7 26 16 26 35 0 25 0
25 -17 5 -9 -12 -22 -21 -30 -21 -27 0 -41 -16 -30 -36 7 -14 7 -24 -3 -37
-17 -24 -28 -21 -13 4 11 17 10 22 -5 33 -16 13 -16 14 5 28 13 8 31 18 41 21
10 4 15 12 11 18 -4 7 3 19 16 29 16 12 21 23 16 35 -5 13 -9 15 -20 6 -9 -8
-16 -8 -20 -2 -4 5 2 12 11 15 11 4 18 16 18 31 0 19 -4 24 -18 19 -16 -5 -17
-3 -8 14 17 33 13 70 -9 82 -24 13 -29 70 -5 70 19 0 18 6 -8 55 -12 22 -36
49 -53 60 -18 11 -32 28 -33 38 -1 9 -1 26 -2 37 0 11 -8 25 -18 32 -26 19
-38 43 -18 35 9 -3 19 -2 22 4 4 5 11 7 16 4 10 -7 -21 76 -45 123 -8 15 -24
38 -37 51 -12 13 -23 35 -24 50 -3 30 -212 314 -298 403 -30 31 -77 71 -103
88 -27 17 -48 33 -46 35 7 15 -1 27 -25 37 -16 7 -35 21 -44 31 -9 11 -23 18
-30 15 -26 -10 -34 -7 -31 11 4 26 -53 77 -115 103 -29 12 -53 27 -53 33 0 7
-11 17 -25 23 -14 6 -25 16 -25 22 0 7 -7 7 -21 0 -17 -10 -21 -8 -26 9 -4 15
-13 21 -34 21 -19 0 -32 7 -40 22 -27 50 -62 65 -88 39 -18 -18 -19 -18 -34 9
-29 48 -93 85 -148 84 -47 -1 -48 0 -43 25 5 23 4 24 -6 8 -11 -18 -13 -18
-33 4 -12 13 -20 25 -19 28 4 4 -19 21 -30 21 -5 0 -8 -7 -8 -15 0 -18 -46
-21 -53 -2 -4 10 -7 10 -18 0 -16 -16 -53 -17 -44 -2 4 6 13 8 21 5 19 -7 27
10 14 34 -7 13 -21 20 -41 20 -17 0 -28 -4 -25 -9 3 -5 -5 -8 -19 -7 -14 0
-25 6 -25 11 0 17 -43 39 -82 41 -21 1 -38 -3 -38 -8 0 -6 -6 -5 -15 2 -8 7
-15 19 -15 26 0 8 -10 14 -24 14 -13 0 -40 7 -60 15 -50 21 -175 44 -182 34
-3 -5 -10 -9 -15 -9 -6 0 -7 5 -4 10 3 6 -5 10 -18 10 -14 0 -27 -7 -31 -15
-6 -16 -30 -11 -58 12 -14 13 -20 12 -43 -3 -20 -13 -29 -14 -38 -5 -8 8 -6
11 11 11 12 0 22 5 22 10 0 6 -9 10 -19 10 -11 0 -23 -4 -26 -10 -8 -12 -48
-13 -61 -1 -5 5 -24 12 -42 16 -29 6 -34 4 -39 -14 -6 -22 -30 -24 -25 -2 2
12 -48 14 -118 2 -32 -5 -69 -1 -124 13 -62 15 -85 17 -108 8 -16 -6 -28 -6
-28 -1 0 12 -23 12 -36 -1z m994 -93 c7 3 12 -4 12 -15 0 -16 -5 -19 -22 -14
-26 6 -49 32 -41 45 3 5 12 2 21 -6 10 -8 23 -12 30 -10z m-580 -332 c-2 -1
-18 -5 -37 -9 -27 -5 -31 -4 -22 8 6 7 22 11 36 8 14 -2 25 -6 23 -7z m-2888
-976 c0 -11 -4 -17 -10 -14 -5 3 -10 13 -10 21 0 8 5 14 10 14 6 0 10 -9 10
-21z m5364 -267 c3 -5 -7 -15 -22 -23 -15 -7 -31 -15 -36 -18 -9 -4 -1 14 17
37 11 14 33 16 41 4z m11 -112 c3 -5 -1 -20 -9 -32 -14 -20 -16 -20 -22 -3 -5
11 -3 20 4 23 7 2 10 8 6 13 -3 5 -1 9 5 9 5 0 13 -4 16 -10z m-30 -350 c3 -5
-1 -10 -10 -10 -9 0 -13 5 -10 10 3 6 8 10 10 10 2 0 7 -4 10 -10z m93 -543
c18 -1 9 -21 -11 -25 -8 -2 -21 7 -27 19 -11 20 -10 21 6 14 11 -4 25 -8 32
-8z m-2888 -42 c0 -3 -12 -10 -26 -15 -28 -11 -77 -3 -68 11 5 9 94 13 94 4z
m100 -19 c0 -2 -13 -9 -29 -14 -25 -9 -29 -8 -24 4 4 12 53 21 53 10z m-1305
-36 c-10 -11 -20 -18 -23 -15 -7 6 18 35 31 35 5 0 2 -9 -8 -20z m3991 -14
c-1 -7 -9 -24 -19 -37 l-17 -24 10 28 c6 16 8 33 4 38 -3 5 1 9 10 9 8 0 13
-6 12 -14z m74 -42 c0 -8 -6 -14 -14 -14 -12 0 -14 10 -7 38 3 10 21 -11 21
-24z m-3060 -53 c0 -56 -27 -98 -68 -106 l-23 -4 21 26 c23 30 19 44 -5 19 -9
-9 -19 -16 -23 -17 -4 0 -14 -2 -23 -4 -9 -1 -22 1 -28 5 -15 8 63 70 89 70 8
0 21 14 27 30 17 46 33 37 33 -19z m-204 -152 c40 -24 42 -34 12 -44 -36 -12
-37 -12 -58 19 -31 49 -10 60 46 25z m1508 12 c3 -5 -1 -14 -9 -21 -11 -9 -12
-16 -5 -25 10 -11 -27 -74 -68 -115 -13 -12 -14 -12 -9 5 3 11 8 37 11 58 11
70 60 130 80 98z m-1610 -73 c-32 -46 -59 -63 -46 -29 4 11 12 21 17 22 6 1
18 15 28 32 10 16 21 26 24 23 4 -3 -7 -25 -23 -48z m1416 16 c0 -8 6 -14 14
-12 32 6 16 -18 -25 -40 -52 -27 -59 -17 -28 37 22 39 39 45 39 15z m-1506
-29 c-4 -8 -11 -12 -16 -9 -6 4 -5 10 3 15 19 12 19 11 13 -6z m-52 -71 c-12
-8 -27 -12 -32 -9 -17 10 -1 25 28 25 l26 0 -22 -16z"/>
<path d="M5478 8003 c7 -3 16 -2 19 1 4 3 -2 6 -13 5 -11 0 -14 -3 -6 -6z"/>
<path d="M6088 7362 c-23 -5 -23 -14 2 -29 16 -11 21 -10 30 6 11 21 -2 30
-32 23z"/>
<path d="M8805 6980 c-100 -11 -209 -69 -302 -159 -18 -17 -37 -31 -43 -31
-20 0 -135 -62 -197 -107 -63 -44 -113 -104 -113 -133 0 -9 -10 -16 -22 -17
-22 -2 -31 -11 -86 -83 -13 -16 -30 -30 -38 -30 -17 0 -18 -22 -1 -39 6 -7 8
-12 2 -11 -26 5 -31 -3 -30 -50 2 -82 19 -92 157 -96 100 -2 163 3 236 21 12
3 30 7 40 9 61 15 209 72 420 163 223 95 421 167 480 176 18 3 37 25 73 88 57
98 65 149 25 167 -13 6 -30 23 -38 39 -17 35 -96 68 -200 84 -90 13 -282 18
-363 9z m-565 -425 c-7 -8 -24 -15 -38 -15 -40 0 -8 22 42 29 5 0 3 -6 -4 -14z
m13 -102 c8 -7 -11 -33 -25 -33 -5 0 -6 5 -3 10 3 6 1 10 -4 10 -6 0 -11 5
-11 10 0 11 33 14 43 3z"/>
<path d="M533 6709 c-45 -8 -88 -32 -97 -54 -13 -35 169 -112 453 -191 160
-44 260 -63 321 -58 35 3 49 0 53 -10 6 -16 57 -32 122 -39 78 -9 114 -19 134
-38 12 -11 21 -24 21 -29 0 -6 6 -10 14 -10 9 0 12 -8 8 -25 -2 -15 0 -25 7
-25 7 0 10 4 7 9 -9 14 21 33 42 27 13 -5 25 2 38 20 10 14 42 41 70 60 59 39
81 79 67 121 -10 33 -101 82 -167 91 -23 3 -51 11 -63 19 -12 8 -41 16 -65 18
-24 2 -61 11 -82 20 -60 25 -74 28 -162 29 -50 1 -88 7 -97 14 -9 7 -45 14
-80 15 -36 2 -71 8 -79 15 -10 8 -50 12 -114 11 -54 0 -124 2 -154 6 -100 10
-155 12 -197 4z"/>
<path d="M9153 5439 c-6 -6 -45 -10 -87 -11 -43 0 -79 -5 -83 -11 -4 -6 0 -8
10 -4 9 3 19 2 22 -3 4 -6 -5 -10 -18 -10 -17 0 -26 -7 -30 -21 -4 -14 -11
-20 -20 -16 -8 3 -20 0 -26 -6 -6 -6 -11 -7 -11 -1 0 6 5 15 12 22 9 9 8 12
-5 12 -9 0 -17 -4 -17 -9 0 -6 -18 -20 -40 -32 -22 -13 -40 -26 -40 -31 0 -11
14 -10 26 1 5 4 21 11 36 15 27 6 27 6 16 -26 -13 -40 -33 -64 -25 -30 4 18 1
22 -17 22 -22 0 -76 -41 -76 -57 0 -5 -10 -13 -22 -18 -13 -6 -22 -17 -20 -24
2 -9 -4 -12 -19 -8 -12 3 -30 2 -40 -4 -12 -6 -20 -5 -24 1 -5 8 -11 7 -20 0
-8 -7 -19 -9 -24 -5 -6 3 -19 1 -30 -5 -14 -7 -22 -7 -26 1 -5 7 -15 4 -29 -9
-31 -28 -53 -33 -71 -16 -13 14 -16 13 -27 -10 -13 -29 -26 -33 -35 -10 -5 13
-9 12 -25 -6 -14 -15 -30 -21 -52 -19 -17 2 -42 -4 -56 -13 -14 -9 -45 -27
-70 -41 -24 -13 -46 -29 -47 -34 -2 -5 36 -22 84 -38 88 -30 170 -38 225 -23
23 7 26 6 20 -14 -5 -22 -6 -22 46 -1 6 3 12 0 12 -7 0 -8 63 -11 248 -9 136
1 253 -1 259 -4 6 -4 13 -2 15 3 2 7 13 7 34 0 32 -11 84 0 84 19 0 6 14 4 33
-3 17 -7 49 -16 70 -19 32 -5 37 -3 37 14 0 10 7 19 15 19 18 0 19 -12 3 -28
-8 -8 -8 -12 -1 -12 6 0 13 7 17 15 3 8 17 15 32 15 18 0 24 -4 21 -13 -4 -10
6 -13 41 -11 26 1 50 -3 54 -9 5 -8 15 -7 35 2 19 9 29 9 31 2 2 -6 10 -11 17
-11 7 0 15 -6 18 -14 4 -9 15 -12 31 -9 31 6 45 23 19 23 -12 0 -8 6 15 20 18
11 37 18 43 15 5 -4 12 7 15 24 4 17 17 37 29 45 19 12 24 26 27 73 4 54 2 61
-33 108 -21 28 -55 70 -77 95 -36 41 -42 44 -61 32 -18 -10 -21 -10 -21 3 0 8
-15 22 -32 31 -18 9 -41 23 -50 31 -20 18 -38 9 -38 -18 0 -24 -12 -24 -35 1
-17 19 -17 20 6 28 l23 9 -22 12 c-12 7 -45 15 -72 18 -40 5 -51 3 -56 -11 -8
-20 -33 -21 -40 -1 -8 20 -48 19 -68 -1 -14 -13 -16 -14 -16 0 0 20 -14 28
-27 15z m-20 -61 c-13 -12 -26 -18 -30 -14 -4 4 1 14 11 22 31 22 43 17 19 -8z
m-70 -35 c-20 -34 -36 -41 -39 -18 -2 14 45 60 53 51 2 -2 -4 -17 -14 -33z
m-68 -30 c-8 -8 -15 -19 -15 -24 0 -6 -8 -5 -20 1 -11 6 -20 16 -19 23 0 9 2
9 6 0 9 -24 33 -14 33 13 0 22 2 24 15 14 13 -11 13 -14 0 -27z m-212 -143 c6
-22 -8 -28 -16 -7 -3 7 -6 5 -6 -5 -1 -10 -8 -18 -16 -18 -19 0 -19 9 2 32 21
23 29 23 36 -2z"/>
<path d="M4859 5330 c-20 -16 -21 -19 -7 -20 10 0 22 9 28 20 13 25 8 25 -21
0z"/>
<path d="M8716 5243 c-14 -14 -24 -28 -21 -32 3 -3 20 9 38 27 17 18 27 32 21
32 -6 0 -23 -12 -38 -27z"/>
<path d="M1537 5144 c-1 -1 -34 -4 -73 -7 -39 -4 -93 -11 -120 -17 -27 -5 -62
-12 -79 -15 -16 -3 -68 -12 -115 -20 -79 -13 -104 -17 -200 -31 -170 -23 -363
-106 -434 -185 -44 -49 -46 -53 -30 -70 16 -18 16 -20 0 -38 -32 -35 -4 -83
55 -97 51 -12 72 -10 221 25 87 21 102 22 130 10 18 -8 35 -13 38 -13 3 1 39
4 80 8 41 3 84 8 95 10 121 26 187 41 280 65 97 26 211 52 285 66 14 3 54 8
90 10 71 6 77 10 126 93 44 72 40 97 -25 158 l-56 53 -30 -17 c-26 -15 -36
-16 -77 -6 -41 11 -154 23 -161 18z"/>
<path d="M4130 4778 c-12 -22 -12 -22 6 -6 10 10 15 20 12 24 -4 3 -12 -5 -18
-18z"/>
<path d="M5653 4499 c-12 -30 -3 -39 38 -39 25 0 24 6 -4 40 l-24 27 -10 -28z"/>
<path d="M2409 3896 c-5 -5 -75 -14 -174 -21 -183 -15 -251 -47 -520 -245
-171 -127 -326 -271 -391 -366 -32 -47 -38 -63 -41 -120 -3 -75 16 -121 54
-130 66 -17 227 33 440 136 128 63 230 127 453 289 69 50 149 103 178 118 49
26 57 36 103 123 50 94 50 95 34 125 -9 17 -34 42 -55 55 -22 14 -40 28 -40
32 0 8 -33 11 -41 4z"/>
<path d="M7875 3610 c-7 -22 -31 -27 -37 -9 -5 16 -57 3 -86 -21 -31 -25 -40
-82 -18 -114 9 -14 37 -35 63 -47 82 -37 246 -90 261 -84 8 3 16 -3 19 -15 3
-12 14 -20 27 -20 12 0 38 -11 58 -25 41 -28 54 -31 61 -12 4 10 6 10 6 0 1
-7 9 -13 19 -13 10 0 24 -6 31 -12 11 -10 14 -10 18 0 6 17 23 15 23 -3 0 -17
16 -20 25 -5 9 15 46 12 66 -6 13 -11 37 -16 83 -16 35 0 111 -9 168 -19 126
-23 115 -23 122 -1 4 10 21 34 40 53 25 25 31 37 24 47 -7 8 -7 12 1 12 6 0
11 7 11 16 0 8 5 12 10 9 6 -3 10 5 10 19 0 18 -4 24 -15 20 -8 -4 -15 -1 -15
5 0 6 5 11 10 11 22 0 8 21 -29 46 -21 14 -41 34 -44 45 -6 23 -30 25 -47 4
-7 -8 -17 -15 -22 -15 -6 0 -5 7 2 15 11 13 8 15 -13 15 -15 0 -32 -9 -41 -22
-13 -19 -16 -20 -16 -5 0 10 -7 20 -15 23 -8 4 -15 13 -15 22 0 13 2 13 13 -2
12 -17 14 -17 20 -2 7 17 -4 21 -58 17 -21 -1 -26 1 -17 7 20 13 -6 22 -33 11
-35 -14 -54 -10 -49 9 4 15 -1 17 -40 16 -34 -1 -46 2 -46 13 0 11 -10 14 -37
12 -21 -1 -46 2 -55 6 -11 4 -23 1 -33 -8 -8 -9 -24 -19 -35 -22 -15 -5 -19
-12 -15 -26 4 -13 2 -19 -9 -19 -21 0 -20 6 4 46 12 18 17 35 12 38 -5 3 -15
-7 -21 -22 l-13 -27 -14 28 c-18 34 -31 34 -46 2 -14 -32 -30 -32 -22 -1 5 22
3 25 -18 23 -13 -1 -37 -17 -54 -34 -35 -37 -44 -40 -44 -18 0 8 -4 15 -10 15
-5 0 -7 7 -3 16 6 16 7 16 18 0 14 -18 35 -22 35 -5 0 5 -6 7 -12 3 -10 -6
-10 -4 0 7 37 39 -24 36 -64 -4 -28 -29 -36 -28 -39 1 0 9 -5 19 -10 20 -6 2
-18 8 -27 13 -13 7 -18 4 -23 -11z m445 -45 c0 -9 -6 -12 -15 -9 -8 4 -15 10
-15 15 0 5 7 9 15 9 8 0 15 -7 15 -15z"/>
<path d="M6595 1913 c-37 -7 -75 -9 -82 -4 -24 13 -64 0 -75 -25 -6 -13 -9
-26 -7 -28 15 -15 177 -107 237 -136 47 -22 71 -39 68 -47 -7 -18 29 -53 53
-53 22 0 40 -20 19 -20 -21 -1 23 -30 45 -30 17 0 18 -2 6 -16 -11 -14 -10
-18 6 -30 10 -8 25 -15 32 -15 7 -1 18 -3 23 -4 6 -1 16 -3 23 -4 7 -1 5 -7
-6 -15 -17 -13 -16 -16 15 -39 18 -13 74 -45 123 -72 50 -26 113 -65 142 -86
l52 -39 58 57 c32 32 68 78 81 101 26 52 26 52 6 52 -11 0 -14 5 -9 18 16 38
17 53 5 82 -7 16 -25 35 -40 42 -20 8 -26 16 -19 24 6 8 -11 31 -55 73 -111
109 -207 165 -296 174 -19 2 -73 14 -120 26 -105 26 -196 31 -285 14z"/>
<path d="M3425 1809 c-64 -6 -161 -34 -171 -50 -3 -5 -7 -22 -10 -37 -3 -15
-22 -83 -44 -152 -21 -69 -42 -143 -45 -165 -4 -22 -31 -93 -62 -157 -30 -64
-60 -144 -66 -177 -7 -37 -17 -61 -26 -63 -18 -4 -42 -83 -29 -96 6 -6 6 -12
-1 -16 -6 -4 -11 -4 -11 1 0 4 -17 -21 -37 -57 -29 -54 -36 -76 -37 -125 0
-44 -5 -65 -19 -80 -62 -66 -107 -165 -76 -165 8 0 2 -11 -14 -25 -15 -15 -27
-36 -27 -51 0 -14 -4 -23 -9 -19 -22 13 -34 -53 -16 -88 7 -13 9 -30 5 -36
-13 -23 13 -80 43 -92 80 -33 186 2 335 110 71 52 86 71 56 71 -8 0 -12 5 -9
10 5 8 11 8 19 1 9 -7 27 4 64 39 52 49 64 70 40 70 -7 0 1 9 18 19 37 23 93
88 100 119 6 20 16 27 37 23 5 -1 6 2 3 7 -3 5 15 38 39 72 25 35 45 70 45 77
0 7 14 34 30 60 17 26 29 56 26 66 -2 9 0 15 5 11 5 -3 9 0 9 5 0 6 -8 11 -17
11 -14 0 -12 4 8 17 32 20 50 53 90 168 17 50 35 99 39 110 5 11 34 95 64 188
52 156 55 173 53 252 -1 46 -6 88 -12 94 -11 11 -28 15 -165 35 -130 20 -156
22 -225 15z"/>
<path d="M5070 1199 c-31 -13 -41 -15 -115 -23 -159 -18 -175 -26 -198 -103
-28 -88 -45 -187 -36 -209 4 -12 0 -77 -8 -145 -14 -117 -13 -365 1 -428 18
-79 55 -172 91 -227 l41 -65 60 39 c159 103 264 276 290 479 16 116 8 310 -17
423 -19 89 -71 270 -78 269 -3 0 -17 -5 -31 -10z"/>
</g>
</svg>
